<svg width="16" height="16" viewBox="0 0 16 16" fill="none" xmlns="http://www.w3.org/2000/svg">
<g clip-path="url(#clip0_127_49)">
<g clip-path="url(#clip1_127_49)">
<path d="M15.5657 0.174997C15.8813 0.393747 16.047 0.771872 15.9876 1.15L13.9876 14.15C13.9407 14.4531 13.7563 14.7187 13.4876 14.8687C13.2188 15.0187 12.897 15.0375 12.6126 14.9187L8.87508 13.3656L6.73446 15.6812C6.45633 15.9844 6.01883 16.0844 5.63446 15.9344C5.25008 15.7844 5.00008 15.4125 5.00008 15V12.3875C5.00008 12.2625 5.04696 12.1437 5.13133 12.0531L10.3688 6.3375C10.5501 6.14062 10.5438 5.8375 10.3563 5.65C10.1688 5.4625 9.86571 5.45 9.66883 5.62812L3.31258 11.275L0.553206 9.89375C0.221956 9.72812 0.00945635 9.39687 8.13452e-05 9.02812C-0.00929365 8.65937 0.184456 8.31562 0.503206 8.13125L14.5032 0.131247C14.8376 -0.0593776 15.2501 -0.0406276 15.5657 0.174997Z" fill="white"/>
</g>
</g>
<defs>
<clipPath id="clip0_127_49">
<rect width="16" height="16" fill="white"/>
</clipPath>
<clipPath id="clip1_127_49">
<path d="M0 0H16V16H0V0Z" fill="white"/>
</clipPath>
</defs>
</svg>
