<svg width="41" height="36" viewBox="0 0 41 36" fill="none" xmlns="http://www.w3.org/2000/svg">
<path d="M40.5 36H0V0H40.5V36Z" stroke="#E5E7EB"/>
<g clip-path="url(#clip0_1_160)">
<path d="M23.857 25.8118C25.7766 25.5375 27.5063 24.4477 28.582 22.7953L39.9516 5.21019C40.8375 3.83909 40.6125 2.02503 39.4172 0.907063C38.2219 -0.210905 36.4008 -0.309343 35.093 0.675032L18.45 13.1625C16.7625 14.4282 15.7641 16.4039 15.75 18.5133L23.857 25.8118ZM22.4789 27.5977L14.3227 20.2571C10.118 20.4118 6.75 23.8782 6.75 28.125C6.75 28.3993 6.76406 28.6735 6.79219 28.9407C6.91875 30.1711 6.075 31.5 4.8375 31.5H4.5C3.25547 31.5 2.25 32.5055 2.25 33.75C2.25 34.9946 3.25547 36 4.5 36H14.625C18.9773 36 22.5 32.4774 22.5 28.125C22.5 27.9493 22.493 27.7735 22.4859 27.5977H22.4789Z" fill="#FF54B0"/>
</g>
<defs>
<clipPath id="clip0_1_160">
<path d="M0 0H40.5V36H0V0Z" fill="white"/>
</clipPath>
</defs>
</svg>
